<svg width="252" height="330" viewBox="0 0 252 330" fill="none" xmlns="http://www.w3.org/2000/svg">
<path d="M124.982 3.10864C125.362 3.2395 126.063 4.12523 126.249 4.48455C144.944 40.7134 189.326 57.666 227.849 45.9074C231.38 44.8299 235.886 42.564 239.355 41.0374C241.013 40.3085 249.339 35.1015 249.918 35.1572C250.219 36.0744 249.982 42.4586 249.971 43.7649L249.957 60.219L249.76 125.245L249.548 213.975L249.456 241.62C249.461 246.98 249.709 252.984 249.244 258.279C248.581 265.815 244.915 273.315 240.607 279.466C236.537 285.278 230.717 289.975 224.318 293.106C207.397 300.537 188.508 294.988 170.861 297.81C167.499 298.331 164.212 299.244 161.061 300.529C159.187 301.296 156.967 302.594 155.155 303.622C153.313 304.666 149.832 306.203 148.223 307.31C144.054 310.177 138.515 314.192 134.786 317.574C132.342 319.792 127.994 325.159 126.084 327.787C125.883 327.974 125.43 328.431 125.204 328.417C124.222 328.352 122.963 326.086 122.39 325.45C120.232 323.055 118.228 320.367 115.88 318.195C107.689 310.607 97.9939 304.826 87.4242 301.229C78.925 298.384 67.3981 296.261 58.3894 295.788C54.6502 295.625 50.9053 295.643 47.1679 295.84C45.2313 295.954 41.406 296.464 39.6332 296.263C21.8133 294.248 6.36801 283.752 2.77236 265.363C0.934223 255.962 1.26079 247.705 1.26088 238.201L1.26504 211.354L1.26261 90.5102L1.26399 53.8819L1.27201 42.673C1.27296 40.7966 1.35476 37.729 1.15537 35.9364L1.12827 35.7053C21.8397 48.9674 50.1372 53.4136 73.7483 45.9657C93.9651 39.5885 115.665 22.305 124.982 3.10864Z" fill="#00539D"></path>
<path d="M125.824 25.3811C126.363 25.6866 133.574 34.1657 134.815 35.3316C158.888 57.9568 192.221 65.0663 224.123 58.5478C228.522 57.6486 233.015 56.035 237.526 54.7582C237.326 73.5299 237.511 92.6931 237.511 111.504L237.532 189.104C234.573 190.284 230.862 189.834 227.652 189.817L214.078 189.77L167.098 189.472C165.078 178.496 153.108 172.585 143.166 170.692C136.889 169.497 131.529 169.552 125.239 170.225C120.911 170.769 113.429 172.813 109.593 174.797C104.11 177.631 93.2938 184.485 90.2082 189.863C87.0699 189.991 82.883 189.815 79.6432 189.809L56.6678 189.693C42.5622 189.55 28.2852 189.696 14.1979 189.435C14.2515 187.125 14.141 184.511 14.1232 182.167C14.1325 177.148 14.1037 172.131 14.0367 167.115L13.838 118.937L13.7088 80.0016L13.657 65.64C13.6491 62.2636 13.71 58.6891 13.5199 55.3317C16.8901 56.257 20.2793 57.3347 23.5172 58.2801C55.5163 67.6217 91.0254 56.9902 115.767 35.5052C119.219 32.5073 122.44 28.5768 125.824 25.3811Z" fill="#FEFEFE"></path>
<path d="M37.4047 70.7331C40.6801 70.4786 46.9191 70.4725 48.9233 73.5945C53.6427 80.9464 57.7145 88.8131 61.9282 96.4665C66.0893 104.025 70.7815 111.378 74.8211 119.017C75.1308 118.582 75.4533 118.061 75.7494 117.609C75.8756 113.623 75.7882 109.253 75.7874 105.222L75.7787 83.0095C73.8734 80.9599 72.2875 80.3641 69.899 79.0353C64.3584 75.9529 65.7564 73.6864 70.1533 70.923L90.081 70.9224C93.4781 70.9142 96.9981 70.7679 100.367 71.1008C103.617 71.4219 103.364 74.9568 102.785 77.3018C100.464 79.0633 94.563 79.9696 93.9216 83.4321C93.6157 85.0833 93.7946 88.336 93.7706 90.159L93.6525 106.586L93.3979 169.869C91.6442 172.957 88.6782 175.558 84.8929 174.679C81.369 173.86 80.2133 171.492 78.4008 168.698C76.657 166.37 75.547 164.301 74.1086 161.792C72.1592 158.391 70.2025 155.042 68.4621 151.525C67.0922 148.757 65.2765 146.216 63.8351 143.506L57.6183 131.956C56.6896 130.263 50.4528 119.274 49.4002 119.031C48.1804 119.899 48.6108 127.869 48.6104 129.544L48.6108 145.848L48.6138 154.458C48.6151 155.539 48.5208 158.008 48.7089 158.969C49.9749 165.432 63.2593 163.289 56.679 171.901C56.3761 171.938 56.0725 171.965 55.7682 171.986C51.1601 172.276 24.9278 173.184 22.5839 170.806C21.7468 169.958 21.9008 168.295 21.9121 167.202C23.6969 165.021 26.0742 163.98 28.3352 162.42C29.1678 161.845 29.9941 161.04 30.7268 160.332L30.7019 106.754L30.707 91.1371C30.7072 88.5493 30.7305 85.9245 30.6941 83.3572C30.5794 79.6246 26.3817 79.1573 23.7326 78.0246C21.1984 76.9409 21.2243 75.3187 21.8742 73.0728C22.6484 72.3436 24.0438 71.474 24.9706 70.9522C28.862 71.6411 33.4041 71.0319 37.4047 70.7331Z" fill="#E3393F"></path>
<path d="M169.385 70.9643C176.38 70.6469 183.741 71.1084 190.775 70.9305C195.424 70.813 200.324 70.8704 204.983 70.9385C206.621 72.0677 209.099 74.7242 206.977 76.6789C204.074 79.1231 199.455 78.5457 197.089 81.8432C195.598 83.92 196.097 86.8392 196.098 89.3518L196.1 99.9V132.278L196.109 149.489C196.1 150.961 195.625 159.86 196.879 160.102C200.728 160.773 207.146 160.902 210.887 159.804C215.238 158.528 218.779 152.281 217.464 147.832C213.919 144.109 208.093 146.84 204.056 144.06C201.719 142.389 200.805 139.305 200.269 136.668C198.903 129.943 202.826 122.105 210.034 121.044C215.372 120.258 220.703 121.293 225.227 124.618C225.982 125.214 227.07 126.135 227.604 126.912C237.132 140.757 234.009 165.441 215.881 170.354C200.042 174.647 183.535 169.425 167.632 171.942C167.29 171.287 166.11 169.949 165.589 169.302C165.939 160.975 176.174 164.903 176.189 157.829C176.203 151.956 176.202 145.911 176.2 140.034L176.197 105.046C176.197 101.637 176.535 83.9958 176.004 82.3127C174.982 79.074 170.814 79.098 168.302 77.7057C167.248 77.1221 166.72 76.4772 166.409 75.3185L166.356 75.1127C166.543 74.053 166.659 73.6375 167.006 72.6162C167.843 71.9462 168.476 71.5412 169.385 70.9643Z" fill="#E3393F"></path>
<path d="M108.741 70.9901C109.705 70.8483 112.723 70.9145 113.855 70.9172L123.832 70.9386L158.717 70.9083C163.175 74.2626 163.876 77.8462 165.582 82.8137C166.139 84.4358 166.847 86.0267 167.561 87.5871C165.101 99.473 156.014 82.6262 152.761 82.4554C148.727 82.2439 142.239 82.0829 138.183 82.4003L136.902 83.5831C136.78 92.0494 136.877 100.892 136.904 109.376C141.294 111.643 143.081 109.833 147.77 110.215C152.174 107.336 150.506 104.824 152.786 100.709C153.647 99.157 156.216 98.5457 157.641 99.7019C158.562 100.448 159.712 102.762 159.992 103.982C160.267 107.364 159.947 110.904 160 114.309C159.868 120.326 159.964 126.361 159.694 132.332C157.451 135.166 154.575 135.887 152.695 132.267C151.435 129.84 151.394 126.433 149.936 124.36L149.825 124.205C147.751 122.318 146.222 122.469 143.568 122.343C140.705 122.207 139.369 122.284 136.877 123.693C136.984 135.428 136.695 147.453 136.921 159.149C137.417 159.786 138.038 160.508 138.681 160.991C142.322 163.725 146.113 162.397 146.782 167.946C144.486 167.864 141.677 167.457 139.27 167.317C127.875 166.649 119.636 167.133 109.352 172.13C106.582 170.509 105.727 168.495 107.731 165.742C109.717 163.014 113.163 162.262 115.41 160.094L115.559 159.949C115.841 145.355 115.757 130.663 115.929 116.061L116.101 95.4209C116.125 92.5727 116.494 85.3889 115.811 82.823C115.004 79.7945 107.521 79.4002 106.091 76.7661C105.624 75.9057 105.664 74.978 105.905 74.04C106.326 72.2584 107.299 71.8658 108.741 70.9901Z" fill="#E3393F"></path>
<path d="M127.491 172.777C129.363 172.548 135.959 173.028 138.073 173.258C147.865 174.324 154.468 176.643 160.833 184.428C156.344 186.461 152.397 186.691 147.948 188.447C147.08 188.789 145.48 189.894 144.653 190.45L146.237 191.778C149.698 191.065 153.156 190.356 156.605 189.585C158.534 189.156 160.504 188.383 162.418 188.156C162.732 192.459 160.688 194.817 158.67 198.36C155.139 204.562 149.671 208.419 143.693 212.02C137.209 215.925 129.802 217.602 122.313 218.212C121.548 218.267 120.782 218.319 120.017 218.362C112.784 218.773 104.472 217.259 97.9243 214.03C95.9034 213.034 92.2188 210.186 90.5289 208.68C90.5614 208.012 90.5122 207.334 90.4806 206.664C92.6555 205.713 94.5435 205.195 96.8339 204.718C98.9657 204.276 106.134 202.811 106.594 200.427C105.888 199.756 102.254 200.057 101.302 200.298C97.2748 201.319 93.4949 202.837 89.396 203.637C88.9004 203.128 88.3671 202.513 87.883 201.982C89.7121 195.828 95.4144 187.958 100.657 184.183C108.399 178.607 118.044 174.232 127.491 172.777Z" fill="#FEFEFE"></path>
<path d="M114.087 195.427C114.489 195.44 114.553 195.509 114.911 195.688C115.775 196.773 116.194 200.044 116.095 201.422C115.736 201.76 115.764 201.638 115.081 201.631C114.221 200.873 113.155 197.33 112.719 196.033C113.067 195.624 113.541 195.577 114.087 195.427Z" fill="#00539D"></path>
<path d="M122.307 192.717C124.583 193.128 125.45 197.92 124.837 199.204C124.076 199.217 124.035 199.331 123.404 199C122.897 198.008 122.596 195.526 122.22 194.354C121.996 193.659 122.087 193.395 122.307 192.717Z" fill="#00539D"></path>
<path d="M131.066 190.676C131.86 190.713 132.353 190.65 132.911 191.246C134.229 192.649 134.188 195.177 134.165 196.978C132 196.173 131.387 192.68 131.066 190.676Z" fill="#00539D"></path>
<path d="M127.186 191.746C129.119 192.408 130.012 197.041 129.438 198.427C128.663 198.343 128.567 197.982 128.222 197.316C127.197 195.331 126.46 193.91 127.186 191.746Z" fill="#00539D"></path>
<path d="M135.86 189.427C138.348 189.866 139.711 194.058 138.768 195.737C138.313 195.999 138.424 196.035 138.02 195.969C137.214 194.337 136.235 191.249 135.86 189.427Z" fill="#00539D"></path>
<path d="M108.379 196.393C108.881 196.449 109.448 196.533 109.823 196.897C110.744 197.788 111.021 201.916 110.946 203.115C110.703 203.038 110.087 202.848 109.931 202.713C108.901 201.821 108.597 197.861 108.379 196.393Z" fill="#00539D"></path>
<path d="M140.404 188.031C143.222 188.426 143.261 192.393 143.254 194.599C141.164 193.865 140.688 189.911 140.404 188.031Z" fill="#00539D"></path>
<path d="M117.673 194.115C120.45 194.619 120.212 197.993 120.331 200.306C119.737 200.363 119.545 200.421 118.986 200.265C118.652 199.36 117.647 195.009 117.673 194.115Z" fill="#00539D"></path>
<path d="M156.105 228.403L171.742 228.426L171.732 276.112C168.246 276.138 164.761 276.126 161.275 276.078C161.434 268.548 161.306 260.57 161.31 253.006C161.309 250.39 161.534 247.763 161.481 245.152C160.563 247.992 159.474 254.172 158.857 257.318C157.582 263.59 156.357 269.871 155.182 276.162C152.437 276.083 149.497 276.128 146.735 276.128C145.472 269.346 144.15 262.576 142.768 255.817C142.118 252.602 141.494 248.785 140.754 245.663C140.536 248.468 140.69 253.062 140.691 256.042L140.684 276.109C137.183 276.138 133.683 276.131 130.182 276.089L130.187 228.437C135.327 228.349 140.725 228.416 145.882 228.413C146.026 230.198 146.78 233.45 147.068 235.389C148.113 242.427 149.886 249.321 151.026 256.319C151.776 253.539 152.325 249.624 152.843 246.727L156.105 228.403Z" fill="#FEFEFE"></path>
<path d="M176.046 228.434L187.407 228.396C187.913 229.882 188.864 231.983 189.467 233.494L193.342 243.259C194.277 245.558 196.479 251.996 197.85 253.577V228.435C201.239 228.388 204.7 228.421 208.094 228.419C208.094 233.187 208.344 275.398 207.901 276.121C204.401 276.148 200.899 276.137 197.401 276.086C196.461 274.444 195.254 271.005 194.432 269.087C191.714 262.751 189.34 256.365 186.501 250.068C186.767 258.416 186.569 267.696 186.566 276.111C183.058 276.134 179.55 276.131 176.041 276.1L176.046 228.434Z" fill="#FEFEFE"></path>
<path d="M115.252 228.429C118.921 228.376 122.696 228.42 126.374 228.418L126.372 240.249L126.38 253.069C126.379 255.846 126.462 260.21 126.003 262.838C125.322 266.41 123.775 270.919 121.155 273.498C115.92 278.65 103.746 278.462 98.532 273.449C96.6871 271.676 94.964 268.065 94.4431 265.552C93.3108 260.086 93.6166 254.201 93.6169 248.615L93.6305 228.436C97.2526 228.357 101.101 228.421 104.741 228.421L104.728 247.846C104.727 251.408 104.655 254.933 104.868 258.518C105.05 261.573 105.954 265.198 109.732 265.298C112.412 265.369 114.492 263.297 114.857 260.718C115.43 256.664 115.253 252.312 115.252 248.206V228.429Z" fill="#FEFEFE"></path>
<path d="M38.8972 228.391C42.5332 228.424 46.1696 228.425 49.8059 228.398C50.1155 229.882 50.7463 231.843 51.1319 233.369C51.8605 235.791 52.3258 238.442 53.1269 240.828C55.4469 247.735 57.0841 254.852 59.0012 261.883C60.292 266.615 61.5776 271.332 62.7226 276.106C58.9285 276.154 55.0521 276.119 51.2513 276.122C51.0569 275.121 50.0691 269.585 49.6826 269.168L38.5008 269.167L36.9547 276.169C33.3075 276.042 29.4814 276.153 25.7909 276.085C26.8387 272.505 27.7234 268.734 28.7659 265.099C32.1743 253.218 36.0199 240.39 38.8972 228.391Z" fill="#FEFEFE"></path>
<path d="M44.3763 244.614C44.9322 245.066 47.2649 257.086 47.6831 258.859L44.6167 258.895L40.8666 258.875C41.0038 258.269 41.1786 257.646 41.3679 257.052C42.6728 252.96 43.5217 248.818 44.3763 244.614Z" fill="#00539D"></path>
<path d="M63.6428 228.438C67.3352 228.411 71.0279 228.411 74.7203 228.435C74.5788 240.099 74.6883 252.148 74.7341 263.834L90.7523 263.845C90.7543 265.367 90.8743 275.593 90.576 276.128C81.6252 276.047 72.6225 276.216 63.671 276.103L63.6428 228.438Z" fill="#FEFEFE"></path>
<path d="M212.473 228.427L223.547 228.417C223.709 244.196 223.579 260.328 223.545 276.127L212.448 276.089C212.657 271.418 212.469 265.109 212.469 260.267L212.473 228.427Z" fill="#FEFEFE"></path>
</svg>